<svg width="60" height="60" viewBox="0 0 60 60" fill="none" xmlns="http://www.w3.org/2000/svg">
<path d="M50 35.625C53.1066 35.625 55.625 33.1066 55.625 30C55.625 26.8934 53.1066 24.375 50 24.375C46.8934 24.375 44.375 26.8934 44.375 30C44.375 33.1066 46.8934 35.625 50 35.625Z" fill="url(#paint0_linear_102_29)"/>
<path d="M50 15.625C53.1066 15.625 55.625 13.1066 55.625 10C55.625 6.8934 53.1066 4.375 50 4.375C46.8934 4.375 44.375 6.8934 44.375 10C44.375 13.1066 46.8934 15.625 50 15.625Z" fill="url(#paint1_linear_102_29)"/>
<path d="M50 55.625C53.1066 55.625 55.625 53.1066 55.625 50C55.625 46.8934 53.1066 44.375 50 44.375C46.8934 44.375 44.375 46.8934 44.375 50C44.375 53.1066 46.8934 55.625 50 55.625Z" fill="url(#paint2_linear_102_29)"/>
<path d="M10 35.625C13.1066 35.625 15.625 33.1066 15.625 30C15.625 26.8934 13.1066 24.375 10 24.375C6.8934 24.375 4.375 26.8934 4.375 30C4.375 33.1066 6.8934 35.625 10 35.625Z" fill="url(#paint3_linear_102_29)"/>
<path opacity="0.4" d="M47.5 31.875C48.525 31.875 49.375 31.025 49.375 30C49.375 28.975 48.525 28.125 47.5 28.125H29.375V17.5C29.375 13.55 31.05 11.875 35 11.875H47.5C48.525 11.875 49.375 11.025 49.375 10C49.375 8.975 48.525 8.125 47.5 8.125H35C28.95 8.125 25.625 11.45 25.625 17.5V28.125H12.5C11.475 28.125 10.625 28.975 10.625 30C10.625 31.025 11.475 31.875 12.5 31.875H25.625V42.5C25.625 48.55 28.95 51.875 35 51.875H47.5C48.525 51.875 49.375 51.025 49.375 50C49.375 48.975 48.525 48.125 47.5 48.125H35C31.05 48.125 29.375 46.45 29.375 42.5V31.875H47.5Z" fill="url(#paint4_linear_102_29)"/>
<defs>
<linearGradient id="paint0_linear_102_29" x1="49.9999" y1="24.3634" x2="49.9999" y2="35.6205" gradientUnits="userSpaceOnUse">
<stop stop-color="#FF614F"/>
<stop offset="1" stop-color="#FF37A0"/>
</linearGradient>
<linearGradient id="paint1_linear_102_29" x1="49.9999" y1="4.36336" x2="49.9999" y2="15.6205" gradientUnits="userSpaceOnUse">
<stop stop-color="#FF614F"/>
<stop offset="1" stop-color="#FF37A0"/>
</linearGradient>
<linearGradient id="paint2_linear_102_29" x1="49.9999" y1="44.3634" x2="49.9999" y2="55.6205" gradientUnits="userSpaceOnUse">
<stop stop-color="#FF614F"/>
<stop offset="1" stop-color="#FF37A0"/>
</linearGradient>
<linearGradient id="paint3_linear_102_29" x1="9.99989" y1="24.3634" x2="9.99989" y2="35.6205" gradientUnits="userSpaceOnUse">
<stop stop-color="#FF614F"/>
<stop offset="1" stop-color="#FF37A0"/>
</linearGradient>
<linearGradient id="paint4_linear_102_29" x1="29.9996" y1="8.07972" x2="29.9996" y2="51.8576" gradientUnits="userSpaceOnUse">
<stop stop-color="#FF614F"/>
<stop offset="1" stop-color="#FF37A0"/>
</linearGradient>
</defs>
</svg>
