<svg width="171" height="50" viewBox="0 0 171 50" fill="none" xmlns="http://www.w3.org/2000/svg">
<g clip-path="url(#clip0_0_389)">
<path d="M18.887 9.0809C18.9404 9.02987 19.0034 8.98988 19.0723 8.9632C19.1412 8.93653 19.2147 8.9237 19.2886 8.92545H25.9832C26.1323 8.9222 26.2767 8.97809 26.3848 9.0809C26.4369 9.12921 26.4785 9.18772 26.507 9.25279C26.5355 9.31787 26.5504 9.38811 26.5506 9.45916V39.5125C26.5504 39.5836 26.5355 39.6538 26.507 39.7189C26.4785 39.784 26.4369 39.8425 26.3848 39.8908C26.2767 39.9936 26.1323 40.0495 25.9832 40.0462H19.571C19.4405 40.0562 19.31 40.0282 19.1951 39.9657C19.0802 39.9032 18.9858 39.8088 18.9233 39.6939L8.06518 22.7086C8.00041 22.6205 7.93823 22.5842 7.87605 22.5971C7.81387 22.6101 7.78278 22.6801 7.78278 22.7966L7.82942 39.5151C7.82919 39.5862 7.81435 39.6564 7.78582 39.7215C7.7573 39.7866 7.7157 39.8451 7.6636 39.8934C7.55553 39.9962 7.41116 40.0521 7.26203 40.0488H0.567381C0.493514 40.0506 0.420027 40.0378 0.351121 40.0111C0.282216 39.9844 0.219244 39.9444 0.165806 39.8934C0.112689 39.8459 0.0703956 39.7875 0.0417885 39.7223C0.0131814 39.657 -0.00107137 39.5864 -5.35803e-06 39.5151V9.46175C-0.000902664 9.39053 0.0134264 9.31993 0.0420225 9.2547C0.0706186 9.18946 0.112822 9.13109 0.165806 9.08349C0.219244 9.03246 0.282216 8.99247 0.351121 8.96579C0.420027 8.93912 0.493514 8.92629 0.567381 8.92804H7.02627C7.16036 8.91761 7.29455 8.94695 7.41206 9.01239C7.52956 9.07782 7.62517 9.17645 7.68692 9.29594L18.4854 26.2346C18.5476 26.3227 18.6124 26.3616 18.6745 26.346C18.7367 26.3305 18.7678 26.2631 18.7678 26.1466L18.7212 9.47211C18.7184 9.39873 18.7318 9.32563 18.7605 9.25802C18.7891 9.1904 18.8323 9.12993 18.887 9.0809Z" fill="white"/>
<path d="M50.0725 15.5528C50.0192 15.6039 49.9562 15.644 49.8873 15.6706C49.8184 15.6973 49.7448 15.7101 49.6709 15.7082H37.6885C37.5304 15.7082 37.4942 15.7833 37.4942 15.931V20.9313C37.4942 21.0789 37.5304 21.1515 37.6885 21.1515H46.7382C46.8875 21.1498 47.0316 21.2065 47.1397 21.3095C47.192 21.357 47.2337 21.415 47.2618 21.4798C47.2899 21.5446 47.304 21.6146 47.303 21.6852V27.3591C47.3031 27.4299 47.2886 27.5 47.2605 27.5651C47.2325 27.6302 47.1914 27.6888 47.1397 27.7373C47.0314 27.8396 46.8872 27.8955 46.7382 27.8928H37.6936C37.5356 27.8928 37.4942 27.9653 37.4942 28.113V39.5125C37.4942 39.6602 36.976 39.7872 36.8594 39.8908C36.7513 39.9936 36.607 40.0495 36.4578 40.0462H29.7606C29.6871 40.0481 29.614 40.0353 29.5455 40.0086C29.477 39.9819 29.4145 39.9419 29.3616 39.8908C29.3085 39.8433 29.2662 39.7849 29.2376 39.7197C29.209 39.6544 29.1947 39.5838 29.1958 39.5125V9.45917C29.1949 9.38795 29.2092 9.31736 29.2378 9.25212C29.2664 9.18689 29.3086 9.12852 29.3616 9.08091C29.4145 9.02985 29.477 8.98981 29.5455 8.96312C29.614 8.93643 29.6871 8.92363 29.7606 8.92547H49.6709C49.82 8.92278 49.9641 8.97858 50.0725 9.08091C50.1242 9.12945 50.1653 9.18806 50.1933 9.25312C50.2214 9.31819 50.2359 9.38831 50.2357 9.45917V15.1745C50.237 15.2455 50.223 15.316 50.1949 15.3812C50.1668 15.4464 50.125 15.5049 50.0725 15.5528Z" fill="white"/>
<path d="M77.8434 9.08088C77.895 9.12941 77.9361 9.18803 77.9642 9.25309C77.9923 9.31815 78.0067 9.38827 78.0066 9.45913V15.2211C78.0067 15.292 77.9923 15.3621 77.9642 15.4271C77.9361 15.4922 77.895 15.5508 77.8434 15.5993C77.735 15.7017 77.5909 15.7575 77.4418 15.7548H69.1849C69.0269 15.7548 68.9492 15.8273 68.9492 15.975V39.5151C68.9489 39.5861 68.9341 39.6564 68.9056 39.7215C68.8771 39.7865 68.8354 39.845 68.7834 39.8934C68.6753 39.9962 68.5309 40.0521 68.3818 40.0488H61.6923C61.6184 40.0506 61.545 40.0377 61.4761 40.0111C61.4071 39.9844 61.3442 39.9444 61.2907 39.8934C61.2376 39.8459 61.1953 39.7875 61.1667 39.7223C61.1381 39.657 61.1239 39.5863 61.1249 39.5151V15.975C61.1249 15.8273 61.0472 15.7548 60.8892 15.7548H52.9198C52.7707 15.758 52.6263 15.7022 52.5183 15.5993C52.4666 15.5508 52.4255 15.4922 52.3974 15.4271C52.3694 15.3621 52.3549 15.292 52.355 15.2211V9.45913C52.3549 9.38827 52.3694 9.31815 52.3974 9.25309C52.4255 9.18803 52.4666 9.12941 52.5183 9.08088C52.6263 8.97806 52.7707 8.92218 52.9198 8.92543H77.4418C77.5909 8.92274 77.735 8.97854 77.8434 9.08088Z" fill="white"/>
<path d="M129.398 39.8932C129.346 39.8447 129.305 39.786 129.277 39.721C129.249 39.6559 129.235 39.5858 129.235 39.5149V9.46157C129.235 9.39071 129.249 9.32059 129.277 9.25553C129.305 9.19047 129.346 9.13185 129.398 9.08332C129.506 8.9805 129.65 8.92462 129.799 8.92787H136.497C136.645 8.92474 136.789 8.98066 136.896 9.08332C136.949 9.13092 136.991 9.18929 137.019 9.25453C137.048 9.31976 137.062 9.39035 137.062 9.46157V39.5149C137.063 39.5862 137.048 39.6568 137.02 39.7221C136.991 39.7873 136.949 39.8457 136.896 39.8932C136.789 39.9959 136.645 40.0518 136.497 40.0486H129.81C129.734 40.0516 129.659 40.0394 129.588 40.0127C129.517 39.986 129.453 39.9454 129.398 39.8932Z" fill="white"/>
<path d="M133.271 28.9857C133.212 28.2603 133.074 27.5349 133.144 26.8095C133.25 25.9838 133.303 25.1521 133.302 24.3197C133.261 22.7419 133.214 21.1511 132.867 19.6096C132.551 18.1531 131.893 16.7927 130.947 15.6405C130.154 14.6649 129.061 13.9775 127.838 13.6844C127.413 13.5886 126.996 13.472 126.836 12.9072C126.599 12.2097 126.126 11.6169 125.499 11.2309C125.342 11.1334 125.207 11.005 125.102 10.8536C124.997 10.7021 124.924 10.5308 124.887 10.3501C124.832 10.059 124.745 9.77487 124.628 9.50287C124.291 8.77744 123.851 8.0572 123.133 7.72298C121.986 7.18409 120.745 6.83433 119.553 6.38094C119.372 6.29248 119.223 6.14806 119.131 5.969C118.915 5.58038 118.804 5.1244 118.545 4.77464C116.978 2.65795 114.882 1.73821 112.244 2.08279C111.949 2.12165 111.552 2.17606 111.348 2.02579C110.064 1.08101 108.58 0.444499 107.011 0.165594C105.301 -0.142712 103.643 -0.046852 102.075 0.66562C101.434 0.965659 100.704 1.01915 100.026 0.815887C98.5546 0.364579 96.9732 0.429478 95.5438 0.999834C94.9031 1.29248 94.2152 1.46797 93.5126 1.518C92.8599 1.52712 92.2162 1.6716 91.6222 1.94229C91.0281 2.21299 90.4968 2.604 90.0616 3.09062C89.9457 3.22207 89.783 3.30297 89.6082 3.31602C88.8984 3.29529 88.1833 3.15021 87.4838 3.2072C85.9759 3.32897 84.6132 3.79791 83.8903 5.2928C83.7608 5.55188 83.6623 5.60888 83.3722 5.55188C82.386 5.32199 81.3592 5.33088 80.3772 5.57779C79.0637 5.90683 78.1491 6.67111 77.2682 7.66598C76.3278 8.73858 76.2656 10.2127 75.5246 11.4175C74.4468 13.1715 71.7135 13.8762 71.0606 15.8711C70.3689 17.9904 71.3197 20.3765 70.4648 22.4517C69.9906 23.5969 68.9673 24.4233 68.3636 25.5037C67.6226 26.8224 67.5657 28.4624 68.0216 29.9081C68.3456 30.8898 68.8538 31.8008 69.5191 32.5921C70.0373 33.2165 70.957 33.8306 70.9026 34.7322C70.8709 35.556 71.0492 36.3745 71.4208 37.1105L71.4726 37.2116C72.1207 38.6317 73.2609 39.7692 74.6826 40.4138C76.1464 41.0615 77.6335 40.989 79.1725 40.5952C79.2528 40.7532 79.3409 40.9268 79.4316 41.0978C79.802 41.8479 80.294 42.5316 80.8876 43.1212C82.3255 44.484 84.095 44.9762 85.9889 45.0513C87.1366 45.098 88.2921 44.9322 89.445 44.8881C89.5372 44.8905 89.6279 44.9112 89.712 44.949C89.7961 44.9868 89.8718 45.041 89.9347 45.1083C90.6451 45.9994 91.5325 46.7334 92.541 47.2639C94.1214 48.0411 95.8106 48.238 97.5517 48.1862C97.8996 48.1758 98.2432 48.2658 98.5414 48.4453C99.8812 49.3262 101.426 49.8456 103.026 49.9532C104.516 50.0499 106.013 49.9567 107.48 49.6759C109.783 49.277 111.609 48.2018 112.775 46.1213C112.827 46.0604 112.893 46.0133 112.968 45.9843C113.043 45.9554 113.123 45.9455 113.203 45.9555C114.613 46.4134 116.1 46.5895 117.579 46.4737C119.164 46.3183 120.651 45.9244 121.983 45.0436C123.124 44.3032 124.049 43.2757 124.667 42.0641C125.126 41.1625 125.444 40.1469 126.284 39.5018C126.882 39.0459 127.553 38.6857 128.191 38.2764C128.926 37.8049 129.763 37.468 130.432 36.8981C131.1 36.3281 131.644 35.4498 132.064 34.6726C133.003 32.9318 133.422 30.9579 133.271 28.9857ZM72.4675 16.2001C72.7473 15.5835 73.2292 15.1923 73.6929 14.7752C74.0091 14.5201 74.3678 14.3228 74.7526 14.1922C75.478 13.9124 76.1594 13.5497 76.5894 12.8968C76.9672 12.2782 77.2964 11.6311 77.5739 10.9615C77.8719 10.3086 77.9988 9.53914 78.4186 8.98471C79.3253 7.78516 80.4705 6.96128 82.1389 7.13487C83.3251 7.29228 84.4875 7.59419 85.6003 8.03388C86.4475 8.337 87.3154 8.58831 88.1755 8.85776C88.5227 8.96657 88.7585 9.11684 88.7403 9.55209C88.7274 9.87594 88.6082 9.99771 88.2895 9.99253C87.4061 9.99253 86.5174 9.94849 85.6391 10.0081C85.1893 10.063 84.7517 10.1916 84.3437 10.3889C83.7349 10.648 83.1364 10.7957 82.4783 10.5988C82.3142 10.5753 82.1476 10.5753 81.9835 10.5988L81.8695 10.7128C81.9582 10.8078 82.0553 10.8945 82.1597 10.9719C82.5897 11.2517 82.6079 11.4175 82.3488 11.8683C81.8238 12.7939 81.4321 13.7891 81.1855 14.8244C81.1078 15.1405 80.6674 15.3995 80.3383 15.6198C79.1368 16.4538 78.0988 17.5014 77.276 18.7106C76.5266 19.8358 75.9299 21.0555 75.5013 22.3377C75.4515 22.4542 75.3587 22.547 75.2422 22.5968C74.7241 22.7963 74.2059 22.9958 73.6877 23.1538C73.3302 23.2601 73.1281 23.1979 72.9364 22.7367C72.4908 21.6563 72.8172 20.7133 73.1955 19.7391C73.3578 19.3091 73.5107 18.8773 73.6541 18.4437C73.6714 18.2957 73.6714 18.1462 73.6541 17.9981L72.6177 19.5785C72.5685 19.6511 72.5115 19.7184 72.4571 19.791C72.3818 19.7248 72.3156 19.649 72.2602 19.5656C71.7343 18.4049 71.9674 17.3116 72.4675 16.2001ZM101.951 22.2108L102.088 22.1926C102.132 21.4491 102.13 20.7003 102.231 19.9646C102.336 19.0021 102.517 18.0493 102.77 17.1147C103.121 15.9492 103.549 14.8084 104.052 13.7C104.419 12.9917 104.841 12.3134 105.314 11.6714C105.674 11.1195 106.07 10.591 106.433 10.0392C106.834 9.38955 107.391 8.85103 108.055 8.47304C108.718 8.09505 109.465 7.8897 110.229 7.87584C111.913 7.80589 113.441 8.34996 114.892 9.17124C115.656 9.58077 116.296 10.1873 116.747 10.9278C116.918 11.2102 117.029 11.5247 117.074 11.8518C117.118 12.1789 117.095 12.5116 117.006 12.8295C116.952 13.0341 116.887 13.2414 116.807 13.529L115.41 13.4513C115.164 13.4203 114.915 13.4099 114.667 13.4202C113.589 13.5471 112.511 13.5419 111.438 13.8477C109.435 14.3999 107.606 15.455 106.125 16.9126C105.394 17.6413 104.736 18.4396 104.161 19.2961C103.757 19.8894 103.549 20.6148 103.264 21.2833C103.13 21.5968 103.005 21.9128 102.897 22.2367C102.65 22.9854 102.428 23.1357 101.684 23.0761C101.205 23.0373 100.725 23.0165 100.244 23.0036C99.6813 23.0036 99.4663 22.7445 99.3186 22.1926C99.1398 21.4724 98.9533 20.747 98.417 20.1692C98.2926 20.0371 98.3471 19.7521 98.246 19.5811C98.006 19.1385 97.7221 18.721 97.3988 18.3349C96.6993 17.5577 95.9454 16.8426 95.2251 16.0887C95.1681 16.0369 95.122 15.9743 95.0895 15.9044C95.057 15.8346 95.0388 15.7589 95.036 15.6819C95.1111 15.2752 95.264 14.8814 95.3521 14.4746C95.4015 14.1693 95.4335 13.8613 95.4479 13.5523C94.8805 13.9539 94.821 14.4876 94.6707 14.9669C94.5204 15.4462 94.4116 15.5084 93.9893 15.2804C93.5086 15.0529 93.0438 14.7933 92.598 14.5031C92.4956 14.421 92.4109 14.319 92.349 14.2032C92.2871 14.0874 92.2493 13.9603 92.2379 13.8295C92.2259 13.0961 92.2553 12.3626 92.326 11.6325C92.4037 10.7309 92.4245 9.8034 92.6706 8.94325C92.9012 8.1401 93.5463 7.56494 94.2976 7.12969C95.4643 6.49422 96.7651 6.1444 98.0931 6.10891C98.719 6.11512 99.3434 6.16882 99.9611 6.26954C101.205 6.3827 102.403 6.79514 103.454 7.47167C104.179 7.93543 104.7 8.56499 104.783 9.50805C104.894 10.7413 104.303 11.7361 103.824 12.7776C103.166 14.2026 102.453 15.6094 102.171 17.182C101.953 18.2887 101.792 19.406 101.689 20.5293C101.637 21.0656 101.852 21.6408 101.951 22.2108ZM93.6111 16.8245C95.6474 18.2339 97.1164 20.1019 97.8056 22.5243C97.9636 23.0813 98.0646 23.6539 98.2253 24.2083C98.2556 24.2814 98.3033 24.3461 98.3642 24.3967C98.4252 24.4472 98.4975 24.4822 98.575 24.4985C100.244 24.5192 101.912 24.5192 103.58 24.4985C103.666 24.4802 103.745 24.442 103.813 24.3871C103.88 24.3321 103.934 24.262 103.969 24.1824C104.272 23.2575 104.461 22.2859 104.84 21.3921C105.57 19.615 106.797 18.086 108.373 16.9877C109.619 16.0734 111.053 15.4477 112.571 15.156C115.851 14.586 118.861 15.1741 121.506 17.2908C123.473 18.8635 124.789 20.8273 125.284 23.3196C125.439 24.0969 125.468 24.0969 126.302 24.0969C127.395 24.0969 128.033 24.5011 128.178 25.3431C128.246 25.6602 128.231 25.9899 128.132 26.2991C128.033 26.6083 127.855 26.8861 127.615 27.1048C127.387 27.3017 126.965 27.3276 126.628 27.3432C125.488 27.3898 125.512 27.3794 125.219 28.5039C124.666 30.6364 123.472 32.5476 121.796 33.9782C121.019 34.6622 120.242 35.3669 119.265 35.6674C117.796 36.1156 116.325 36.6494 114.928 36.4447C112.383 36.5905 109.877 35.7645 107.917 34.1337C105.845 32.5046 104.471 30.1482 104.073 27.5427C104 27.0996 103.814 26.9338 103.363 26.9416C101.829 26.9701 100.293 26.9597 98.7564 26.9416C98.4118 26.9416 98.2512 27.0038 98.1786 27.4131C97.9176 29.1078 97.252 30.7145 96.2381 32.0973C94.894 33.9153 93.0195 35.272 90.8726 35.9809C89.0435 36.6027 87.1625 36.6286 85.3049 36.3333C83.6303 36.0467 82.0579 35.3328 80.7399 34.2606C78.8021 32.7431 77.4329 30.6162 76.8537 28.224C76.8404 28.159 76.8309 28.0933 76.8252 28.0271C76.7267 27.3017 76.6931 27.2862 75.9469 27.2654C75.5376 27.2654 75.0894 27.2836 74.7344 27.123C74.0712 26.8224 73.8432 26.0866 74.0323 25.2187C74.1644 24.6332 74.8096 24.1513 75.5402 24.1202C75.8054 24.1372 76.0717 24.1294 76.3355 24.0969C76.4295 24.073 76.5173 24.0295 76.5932 23.9692C76.6691 23.9089 76.7314 23.8332 76.776 23.7471C77.2086 22.5372 77.5532 21.2885 78.0429 20.1019C78.2553 19.5837 78.7476 19.1977 79.1258 18.7624C80.408 17.2234 82.0992 16.0782 84.0043 15.4591C85.6065 14.9587 87.3 14.8216 88.9618 15.0577C90.6235 15.2939 92.2118 15.8975 93.6111 16.8245ZM103.236 30.9004C102.821 31.2734 102.441 31.6957 101.801 31.719C101.415 31.7612 101.035 31.8375 100.663 31.947C99.9818 31.8564 99.3678 31.789 98.7771 31.688C98.7205 31.6532 98.6738 31.6044 98.6416 31.5463C98.6094 31.4882 98.5927 31.4228 98.5932 31.3563C98.759 30.8382 98.9637 30.32 99.158 29.8018C99.1984 29.7297 99.2347 29.6553 99.2668 29.579C99.6114 28.2163 99.6658 28.5142 100.839 28.4831C101.205 28.4831 101.575 28.5168 101.935 28.4831C102.49 28.4158 102.757 28.6774 102.891 29.1723C103.011 29.6101 103.171 30.035 103.285 30.4677C103.319 30.592 103.321 30.8226 103.236 30.9004ZM91.3726 13.7285C91.2094 13.8943 90.7948 13.8787 90.5073 13.8373C89.4243 13.6767 88.3465 13.4746 87.7247 13.3684C85.7479 13.4746 84.2608 13.6274 82.8721 14.2622C82.6913 14.3147 82.5034 14.3391 82.3151 14.3347C82.305 14.1339 82.3215 13.9327 82.3643 13.7362C82.8126 12.5315 83.5613 11.5703 84.7816 11.0781C85.8334 10.6558 86.9164 10.477 88.0356 10.9071C88.5538 11.1066 89.1315 11.1454 89.6238 11.3812C90.287 11.6947 90.9762 12.0082 91.3648 12.7232C91.5643 13.086 91.6239 13.4746 91.3726 13.7285ZM79.2606 38.5717C77.8486 39.3645 76.3874 39.4345 74.9365 38.6002C73.4857 37.766 72.7784 36.424 72.6048 34.8202C72.5343 34.1066 72.7178 33.3911 73.1229 32.7994C73.2939 32.5403 73.4546 32.2813 73.6022 32.0014C73.6418 31.8886 73.6662 31.771 73.6748 31.6517L73.5478 31.5558C73.3017 31.7579 73.0426 31.9444 72.812 32.1595C72.2239 32.7191 71.983 32.802 71.4285 32.2631C70.8741 31.7242 70.2005 31.0558 69.8922 30.3174C69.4711 29.3302 69.3802 28.2334 69.6331 27.1903C70.0373 25.483 70.9959 24.1098 71.8871 22.6823C72.641 23.0347 72.9778 24.1876 72.5193 24.9208C72.154 25.5037 72.3535 26.097 72.4856 26.6203C72.7084 27.5038 73.3742 28.1463 74.1748 28.5712C74.5671 28.7345 74.9764 28.8536 75.3951 28.9262C75.6542 29.5557 75.8459 30.162 76.1386 30.719C76.5972 31.5921 77.0895 32.4522 77.6309 33.2761C78.3512 34.3746 79.372 35.1726 80.4523 35.898C80.6803 36.0535 80.9161 36.1986 81.1389 36.3618C81.1993 36.4181 81.2461 36.4875 81.2755 36.5647C81.305 36.6419 81.3164 36.7247 81.3089 36.807C81.3014 36.8893 81.2752 36.9687 81.2322 37.0393C81.1893 37.1099 81.1308 37.1697 81.0612 37.2141C80.4996 37.7158 79.8974 38.1699 79.2606 38.5717ZM131.105 32.9419C130.889 33.5602 130.576 34.14 130.178 34.6596C129.206 35.8436 127.864 36.4732 126.61 37.1986C125.71 37.7251 124.911 38.4076 124.25 39.2143C123.892 39.6887 123.604 40.2123 123.395 40.7687C123.086 41.5916 122.585 42.3288 121.934 42.9191C121.037 43.673 120.053 44.3259 118.809 44.5487C118.032 44.6944 117.245 44.781 116.454 44.8078C115.459 44.8311 114.558 44.4347 113.604 44.2482C112.62 44.0513 112.418 43.2896 112.128 42.546C111.679 41.2969 111.016 40.1353 110.169 39.1132C110.073 38.9916 109.943 38.9014 109.796 38.8541C110.314 40.0874 110.889 41.3076 111.379 42.559C111.568 42.9948 111.655 43.4678 111.634 43.9423C111.613 44.4167 111.484 44.8802 111.257 45.2975C110.85 46.0747 110.187 46.554 109.614 47.1421C109.384 47.3261 109.113 47.4523 108.824 47.51C108.17 47.7128 107.503 47.8763 106.829 47.9997C105.904 48.1676 104.967 48.2637 104.026 48.2873C103.151 48.3222 102.276 48.2137 101.435 47.966C100.251 47.5592 99.0232 47.0281 98.3859 45.8726C97.9455 45.0747 97.79 44.1161 97.5102 43.2274C97.4169 42.9372 97.3314 42.6445 97.2511 42.3517H97.0957C97.0607 42.8866 97.0607 43.4232 97.0957 43.958C97.189 44.6498 97.3936 45.326 97.5154 46.0151C97.5115 46.089 97.4891 46.1608 97.4501 46.2237C97.4112 46.2867 97.357 46.3388 97.2926 46.3752C97.0797 46.4675 96.8479 46.5075 96.6164 46.4918C94.523 46.3027 92.554 45.8441 91.2949 43.9321C90.8207 43.2145 90.6938 42.3776 90.5902 41.546C90.5099 40.8853 90.4321 40.2221 90.3518 39.5588H90.2067C90.1446 40.0615 90.0824 40.5641 90.0254 41.0667C89.9606 41.6393 89.914 42.2118 89.8233 42.7792C89.8035 42.8519 89.7662 42.9187 89.7147 42.9738C89.6633 43.0289 89.5991 43.0706 89.5279 43.0953C88.5797 43.2196 87.6211 43.4321 86.678 43.3829C85.3075 43.3129 83.9059 43.2041 82.7141 42.375C82.012 41.888 81.3565 41.3543 81.1026 40.476C81.0215 40.2317 80.912 39.9977 80.7762 39.7791C80.3902 39.0951 80.6777 38.5562 81.0767 37.9914C81.2529 37.7323 81.3358 37.4396 81.5405 37.1727C81.8591 36.7711 82.1519 36.9136 82.455 37.0147C83.183 37.2401 83.8826 37.5561 84.6184 37.753C85.7096 38.0444 86.8418 38.1512 87.9683 38.0691C89.0156 38.0182 90.0507 37.8211 91.0436 37.4836C91.7016 37.2478 92.3804 37.0794 93.0825 36.8696C93.2302 38.2582 93.0825 39.678 93.8157 40.9086H93.9582C93.981 40.7551 93.9923 40.6001 93.9919 40.4449C93.9323 39.4086 93.8546 38.3722 93.7976 37.3359C93.7637 37.0384 93.8195 36.7375 93.9581 36.472C94.0966 36.2065 94.3114 35.9886 94.5748 35.8462C95.5936 35.1838 96.4786 34.3357 97.1838 33.3461C97.3177 33.1255 97.4768 32.9211 97.6579 32.7372C97.7735 32.6138 97.9197 32.5231 98.0817 32.4744C98.2437 32.4257 98.4157 32.4207 98.5802 32.46C99.4284 32.5981 100.286 32.6726 101.145 32.6828C101.588 32.6984 101.663 32.8694 101.627 33.2709C101.57 34.1855 101.459 35.1208 101.586 36.0172C101.674 36.6209 102.075 37.2167 102.446 37.7349C102.941 38.4292 103.539 39.051 104.101 39.6961C104.22 39.8173 104.346 39.9306 104.479 40.0355L104.526 39.9811C103.785 38.722 103.003 37.4836 102.329 36.1908C102.109 35.7659 102.114 35.1933 102.122 34.6933C102.147 33.6974 102.521 32.742 103.179 31.9937C103.345 31.8282 103.526 31.679 103.72 31.5481C104.153 32.1595 104.536 32.7113 104.933 33.2554C105.87 34.5031 107.039 35.5587 108.376 36.3644C109.435 37.0393 110.614 37.5054 111.848 37.7375C112.834 37.9116 113.831 38.0172 114.832 38.0536C115.351 38.0743 115.571 38.2557 115.693 38.7013C115.767 38.9352 115.854 39.1652 115.952 39.3904L116.151 39.3619C116.151 39.064 116.164 38.7635 116.151 38.4655C116.138 38.409 116.138 38.3504 116.15 38.2937C116.162 38.2371 116.186 38.1837 116.221 38.1373C116.256 38.091 116.3 38.0527 116.351 38.0253C116.402 37.9979 116.459 37.9819 116.516 37.9784C117.021 37.9074 117.521 37.8027 118.011 37.665C118.758 37.4261 119.488 37.1361 120.195 36.797C120.921 36.4395 121.574 35.9343 122.304 35.5897C122.765 35.4239 123.246 35.3202 123.734 35.2814C125.877 34.9291 127.237 33.5948 128.196 31.7501C128.342 31.5211 128.464 31.277 128.558 31.0221C127.095 32.3175 125.968 34.0404 123.895 34.4809L123.755 34.3513C124.014 34.0223 124.258 33.6958 124.501 33.3642C124.819 32.9786 125.104 32.5669 125.354 32.1336C125.859 31.118 126.294 30.0609 126.781 29.0402C126.822 28.9682 126.88 28.9072 126.949 28.8621C127.019 28.817 127.098 28.7893 127.18 28.7811C127.976 28.8692 128.382 28.3018 128.885 27.8613C129.213 27.5856 129.467 27.232 129.624 26.8329C129.78 26.4337 129.835 26.0017 129.781 25.5762C129.781 25.4933 129.846 25.4052 130.012 25.2783C130.271 25.8327 130.584 26.369 130.789 26.9442C131.033 27.5945 131.191 28.2785 131.38 28.9469C131.403 29.0312 131.411 29.1189 131.403 29.206C131.349 30.4496 131.587 31.7242 131.105 32.9419ZM131.846 24.2731C131.802 24.7316 131.561 25.1721 131.411 25.6203L131.256 25.6073C130.96 25.1073 130.693 24.5866 130.364 24.1098C130.035 23.6331 129.641 23.1823 129.271 22.7264C128.9 22.2704 128.442 22.3429 127.976 22.5087C127.944 22.5087 127.919 22.5424 127.887 22.5554C127.04 22.8948 126.592 22.6072 126.452 21.6952C126.389 21.2947 126.251 20.9097 126.045 20.5604C125.825 20.1977 125.965 19.9231 126.089 19.6148C126.121 19.5422 126.139 19.4645 126.183 19.335C126.028 19.3359 125.874 19.3247 125.722 19.3013C125.543 19.2767 125.375 19.2042 125.234 19.0914C124.83 18.6199 124.457 18.1173 124.082 17.6251C124.064 17.5972 124.052 17.5665 124.045 17.5344C123.773 16.498 122.898 15.9799 122.159 15.3529C121.403 14.7329 120.492 14.3315 119.524 14.1922C119.055 14.1093 118.592 13.9979 118.133 13.8762C117.752 13.7725 117.527 13.5471 117.682 13.0989C118.182 11.7076 117.563 10.6273 116.708 9.61168C115.781 8.51836 114.524 7.9432 113.229 7.55976C111.858 7.15819 110.42 6.86024 108.982 7.22037C108.422 7.39152 107.896 7.65987 107.428 8.01315C106.968 8.36506 106.535 8.75041 106.132 9.16606C105.873 9.4096 105.555 9.29301 105.446 8.87848C105.132 7.70485 104.365 6.93797 103.298 6.41981C101.96 5.79168 100.512 5.43085 99.0362 5.35757C97.8196 5.27697 96.5981 5.40489 95.4246 5.73583C94.4557 5.99491 93.4763 6.37576 92.8001 7.18409C92.1824 7.90182 91.7848 8.78248 91.655 9.7205C91.6058 10.078 91.5928 10.4433 91.541 10.8009C91.501 10.9973 91.4491 11.1911 91.3855 11.3812C90.9065 11.1711 90.441 10.9314 89.9917 10.6635C89.8302 10.4938 89.733 10.2729 89.7171 10.0392C89.6601 9.69977 89.8026 9.2412 89.6264 9.02616C89.3024 8.67454 88.9004 8.40388 88.4527 8.23596C87.7481 7.94061 87.0097 7.73075 86.2791 7.50535C86.0531 7.44432 85.8499 7.31865 85.6943 7.14376C85.5388 6.96887 85.4376 6.75238 85.4034 6.52085C85.4048 6.27185 85.4757 6.02818 85.6079 5.8172C85.7402 5.60623 85.9286 5.43629 86.1521 5.32648C87.1522 4.7591 88.2248 4.93527 89.2611 4.98968C90.3596 5.04668 91.199 6.08818 91.2379 7.20741C91.2379 7.40431 91.2379 7.6038 91.2379 7.85511C91.3441 7.80589 91.44 7.78516 91.4425 7.75666C91.5151 7.02605 91.6861 6.28508 91.2664 5.59852C90.87 4.95341 90.9218 4.5881 91.5125 4.11139C92.1488 3.55178 92.9658 3.24081 93.8131 3.2357C93.9111 3.22597 94.01 3.23678 94.1035 3.26744C94.197 3.29811 94.2831 3.34796 94.3562 3.4138C94.4294 3.47964 94.488 3.56002 94.5283 3.64981C94.5686 3.73959 94.5898 3.8368 94.5904 3.93522C94.6189 4.15285 94.3054 4.42747 94.1137 4.65028C94.0359 4.74096 93.8779 4.76428 93.7535 4.81869L93.8157 5.00263C94.3355 4.87299 94.8434 4.69965 95.3339 4.48447C95.4505 4.42747 95.4091 3.93781 95.3339 3.67355C95.2251 3.24347 95.3339 2.91703 95.7485 2.7564C96.6734 2.3911 97.619 2.0802 98.6191 2.27192C99.2208 2.40923 99.8056 2.61254 100.363 2.87817C100.653 3.00512 100.622 3.26161 100.319 3.3782C99.9269 3.49708 99.5427 3.63984 99.1683 3.80568H102.347C102.101 3.70982 101.953 3.66319 101.816 3.59582C101.679 3.52846 101.446 3.43779 101.448 3.36524C101.449 3.17201 101.524 2.98653 101.658 2.84708C102.447 2.22669 103.403 1.85592 104.404 1.78226C105.083 1.7149 105.772 1.7693 106.456 1.7693C106.542 1.75364 106.63 1.75364 106.715 1.7693C107.778 2.16311 108.936 2.33928 109.824 3.12171C110.207 3.41112 110.566 3.73082 110.897 4.07771C111.309 4.57774 110.964 4.96636 110.379 5.00781C109.623 5.05049 108.871 5.15096 108.13 5.30835C107.621 5.4396 107.135 5.64845 106.689 5.92755C106.202 6.21772 105.866 5.99491 105.511 5.68142L105.384 5.79024C105.537 6.14006 105.736 6.4684 105.974 6.76697C106.075 6.87061 106.493 6.7877 106.684 6.66334C107.544 6.11409 108.513 5.94051 109.485 5.76174C110.944 5.50266 112.384 5.72806 113.822 5.9431C113.843 5.9431 113.871 5.91201 113.959 5.84724C113.524 5.71714 113.097 5.55965 112.682 5.37571C112.383 5.23266 112.125 5.01603 111.933 4.74614C111.638 4.29534 111.809 3.90672 112.33 3.82122C114.306 3.49996 116.589 4.26166 117.387 6.41203C117.511 6.74107 117.364 6.80065 117.107 6.80584C116.607 6.80584 116.104 6.80584 115.604 6.80584C115.444 6.80584 115.283 6.80584 115.086 6.82915C115.12 6.91206 115.128 6.9846 115.154 6.98978C115.783 7.15559 116.415 7.30845 117.048 7.46908C117.68 7.62971 118.289 7.7748 118.9 7.95356C119.511 8.13233 120.18 8.37846 120.83 8.5624C121.866 8.85516 122.747 9.32151 123.123 10.4045C123.222 10.6541 123.222 10.9321 123.123 11.1817C123.058 11.2983 122.659 11.2517 122.413 11.2361C122.168 11.2127 121.925 11.1685 121.688 11.104C121.579 11.0807 121.429 11.0548 121.385 10.9796C121.092 10.4848 120.846 10.7205 120.584 11.0029C120.05 11.5781 120.268 12.8554 120.991 13.1611C121.004 13.0082 121.024 12.8683 121.024 12.7258C121.037 11.7517 121.045 11.6895 121.983 11.788C123.102 11.9071 124.224 12.1429 124.947 13.1352C125.429 13.7958 125.724 14.7156 125.193 15.6249C125.137 15.7482 125.09 15.8755 125.053 16.0058L125.154 16.0939C125.425 15.9651 125.681 15.8061 125.916 15.6198C126.058 15.4663 126.24 15.3544 126.441 15.296C126.642 15.2376 126.856 15.2349 127.058 15.2881C127.874 15.498 128.768 15.6483 129.242 16.454C129.606 17.0348 129.76 17.722 129.68 18.4023C129.669 18.5852 129.669 18.7686 129.68 18.9515C129.68 19.9257 129.468 20.1485 128.491 20.2159C128.392 20.2313 128.294 20.2539 128.198 20.2832C128.486 20.6589 128.818 20.6045 129.147 20.5242C129.271 20.4957 129.388 20.4179 129.512 20.3765C130.502 20.0345 130.82 20.1848 131.385 21.0656C132.056 22.0709 131.952 23.1772 131.849 24.2731H131.846Z" fill="black"/>
<path d="M114.783 34.1805C119.281 34.1805 123.253 30.4342 123.198 25.7267C123.199 24.6154 122.98 23.515 122.554 22.4887C122.128 21.4623 121.503 20.5304 120.716 19.7466C119.928 18.9627 118.993 18.3425 117.965 17.9215C116.936 17.5005 115.835 17.2871 114.724 17.2936C110.107 17.3454 106.267 20.8767 106.272 25.7681C106.275 30.5223 110.063 34.1675 114.783 34.1805ZM114.436 32.613C113.538 32.5983 112.654 32.3879 111.845 31.9964C110.921 31.6236 110.118 31.0011 109.526 30.1984C109.446 30.0669 109.375 29.9302 109.314 29.7891L109.399 29.6414C109.905 29.6854 110.412 29.7217 110.918 29.7761C111.866 29.8797 112.799 30.0352 113.63 30.5534C114.215 30.8845 114.648 31.4312 114.835 32.0767C114.933 32.4472 114.825 32.613 114.436 32.613ZM121.338 24.2136C122.6 29.0066 118.449 32.5172 115.796 32.3591C115.757 31.9265 115.941 31.727 116.397 31.6752C117.07 31.6027 117.718 31.3811 118.294 31.0266C118.871 30.6721 119.361 30.1936 119.729 29.6258C120.659 28.3288 121.159 26.7732 121.159 25.1774C121.188 24.8495 121.248 24.5251 121.338 24.2085V24.2136ZM110.866 20.0321C111.902 19.431 112.99 18.8999 114.234 18.874C114.845 18.874 115.457 18.9258 116.068 18.9673C116.327 18.9854 116.405 19.1331 116.509 19.387C116.998 20.5684 116.879 21.8042 116.895 23.1022C117.085 23.0411 117.25 22.9184 117.364 22.7533C117.477 22.5883 117.533 22.3902 117.522 22.1902C117.479 21.5709 117.392 20.9553 117.263 20.3482C117.219 20.058 117.19 19.7652 117.156 19.4725L117.309 19.3766C117.594 19.5062 117.884 19.6357 118.164 19.7626C119.444 20.4052 120.25 21.514 121.014 22.6643C121.094 22.8077 121.122 22.9741 121.094 23.1359C120.835 24.7396 120.76 26.3873 120.079 27.8874C119.278 29.6569 117.905 31.0352 115.571 30.9964C115.346 30.9859 115.132 30.8938 114.97 30.7373C114.359 30.0567 113.57 29.5604 112.692 29.3046C112.109 29.1414 111.511 29.0455 110.918 28.8978C110.731 28.8564 110.545 28.802 110.296 28.7346C110.37 28.5562 110.457 28.383 110.555 28.2164C110.987 27.6337 111.276 26.9571 111.397 26.2418C111.519 25.5264 111.47 24.7925 111.254 24.0996C110.954 23.0478 110.78 21.9571 110.545 20.8845C110.495 20.7269 110.5 20.5573 110.558 20.4028C110.616 20.2483 110.725 20.1178 110.866 20.0321ZM108.361 28.3952C108.17 27.7745 108.031 27.1394 107.943 26.4961C107.899 25.9592 107.895 25.4197 107.93 24.8821C107.956 23.667 108.493 22.6436 109.177 21.6876C109.392 21.3871 109.661 21.128 109.905 20.8508L110.076 20.8922C110.208 21.8146 110.335 22.7343 110.467 23.6566C110.547 24.2577 110.64 24.8613 110.661 25.4702C110.692 26.4728 110.444 27.4029 109.695 28.1232C109.45 28.3592 109.163 28.5457 108.848 28.6724C108.749 28.6723 108.653 28.6467 108.567 28.5982C108.482 28.5496 108.411 28.4796 108.361 28.3952Z" fill="black"/>
<path d="M78.9756 25.7034C78.9082 30.315 82.7893 34.2245 87.4475 34.1779C92.1058 34.1313 95.878 30.5508 95.9065 25.7707C95.9376 21.0373 92.1991 17.3713 87.5097 17.2884C82.8204 17.2055 78.9316 21.1124 78.9756 25.7034ZM86.7869 32.5949C85.5657 32.4689 84.3963 32.0358 83.3877 31.3358C83.2951 31.2625 83.2084 31.182 83.1287 31.0948C82.8385 30.8021 83.0224 30.644 83.31 30.5767C83.5582 30.5533 83.808 30.5533 84.0562 30.5767C85.1699 30.5415 86.2539 30.9399 87.0796 31.6881C87.2662 31.8513 87.2843 32.2063 87.3802 32.4654C87.1903 32.5389 86.9901 32.5826 86.7869 32.5949ZM93.9271 23.8457C94.3391 24.7396 94.5049 25.6386 94.1189 26.5635C94.036 25.6567 93.6292 24.7707 93.9271 23.8457ZM90.541 20.1512C90.5282 20.2371 90.5282 20.3244 90.541 20.4103C90.8519 20.3404 91.155 20.1875 91.4192 20.2342C91.7108 20.314 91.9734 20.4759 92.1758 20.7005C92.5155 21.0462 92.8258 21.4197 93.1033 21.8171C93.2045 21.9873 93.2515 22.1844 93.238 22.3819C93.225 23.0763 93.0748 23.7862 93.1732 24.4546C93.3287 25.5246 93.1732 26.6386 93.6318 27.6672C93.9919 28.4781 93.5256 29.0947 93.0851 29.688C92.5966 30.3914 91.9752 30.9925 91.256 31.4575C90.4606 31.9368 89.6575 32.4343 88.6652 32.3876C88.5862 32.3751 88.511 32.3454 88.4447 32.3007C88.3785 32.2559 88.3228 32.1972 88.2818 32.1286C87.6755 31.0197 86.7558 30.2062 85.5433 30.0145C84.665 29.8746 84.3878 29.3901 84.1183 28.7372C84.0199 28.4962 83.9007 28.2631 83.8049 28.0221C83.5458 27.3589 82.968 27.0765 82.2115 26.7915C82.354 27.0324 82.4265 27.1723 82.512 27.3097C82.8618 27.8278 83.2556 28.346 83.5484 28.8849C83.8411 29.4238 83.2893 30.4653 82.652 30.4679C82.5262 30.4445 82.4064 30.3965 82.2992 30.3267C82.1921 30.2569 82.0998 30.1666 82.0276 30.0611C80.9317 28.5895 80.315 26.9521 80.4964 25.0919C80.5663 24.3665 80.8824 23.6592 81.126 22.9571C81.4835 21.9208 82.2581 21.1798 82.9784 20.4207C83.3748 20.0062 83.9629 19.7782 84.4655 19.4647L84.6469 19.6409C84.5251 20.1409 84.4396 20.6513 84.2764 21.1383C83.9033 22.2446 84.1235 23.3017 84.5484 24.3173C85.2158 25.8389 86.2775 27.1546 87.6237 28.1284C88.0097 28.4237 88.3854 28.7372 88.7818 29.0196C88.9405 29.1056 89.1269 29.1252 89.3 29.074C89.1893 28.8818 89.0618 28.6997 88.9191 28.5299C88.1548 27.7527 87.3646 27.0065 86.6055 26.2137C85.9204 25.5093 85.4264 24.6416 85.1702 23.6929C85.0133 23.0526 84.9642 22.3906 85.0251 21.7342C85.1267 21.0417 85.2791 20.3576 85.4811 19.6875C85.5146 19.4469 85.6374 19.2278 85.8251 19.0737C86.0128 18.9196 86.2517 18.8418 86.4941 18.8558C87.6977 18.767 88.9063 18.9375 90.0383 19.3559C90.4503 19.5191 90.6705 19.6979 90.541 20.1512Z" fill="black"/>
<path d="M77.2838 15.3611C77.4843 15.3442 77.6735 15.2608 77.8213 15.1243C77.9691 14.9877 78.0672 14.8057 78.0999 14.6072C78.2139 13.8144 78.2735 13.0164 78.359 12.221L78.0999 12.1562C77.9378 12.4933 77.8152 12.848 77.7346 13.2133C77.6413 14.1201 77.3667 14.8714 76.4159 15.1901L75.6179 15.4492C75.6335 15.5062 75.6464 15.5632 75.6594 15.6202C76.1983 15.5398 76.7423 15.4621 77.2838 15.3611Z" fill="black"/>
<path d="M131.401 29.1982C131.408 29.1111 131.4 29.0234 131.377 28.9391C131.188 28.2707 131.03 27.5867 130.787 26.9364C130.574 26.3612 130.268 25.8249 130.009 25.2705C129.844 25.3975 129.774 25.4855 129.779 25.5685C129.832 25.9939 129.778 26.4259 129.621 26.8251C129.465 27.2242 129.211 27.5778 128.882 27.8535C128.38 28.294 127.973 28.8614 127.178 28.7733C127.095 28.7815 127.016 28.8093 126.947 28.8543C126.877 28.8994 126.82 28.9605 126.779 29.0324C126.292 30.0687 125.856 31.105 125.351 32.1258C125.102 32.5592 124.817 32.9708 124.499 33.3564C124.255 33.688 124.001 34.0145 123.753 34.3435L123.892 34.4731C125.965 34.0326 127.09 32.3123 128.556 31.0143C128.461 31.2692 128.34 31.5133 128.193 31.7424C127.235 33.587 125.861 34.9213 123.732 35.2736C123.244 35.3124 122.763 35.4161 122.302 35.5819C121.571 35.9265 120.918 36.4317 120.193 36.7892C119.486 37.1283 118.756 37.4183 118.009 37.6572C117.518 37.7949 117.019 37.8996 116.514 37.9707C116.456 37.9741 116.4 37.9901 116.349 38.0175C116.298 38.045 116.253 38.0832 116.218 38.1295C116.184 38.1759 116.159 38.2293 116.147 38.2859C116.135 38.3426 116.136 38.4012 116.149 38.4577C116.167 38.7557 116.149 39.0562 116.149 39.3541L115.949 39.3826C115.851 39.1574 115.765 38.9274 115.69 38.6935C115.568 38.2479 115.345 38.0665 114.83 38.0458C113.832 38.0004 112.838 37.8862 111.856 37.7038C110.621 37.4717 109.443 37.0056 108.384 36.3307C107.047 35.525 105.878 34.4695 104.941 33.2217C104.544 32.6776 104.163 32.1258 103.728 31.5144C103.534 31.6453 103.353 31.7945 103.187 31.96C102.529 32.7083 102.155 33.6637 102.13 34.6596C102.13 35.1596 102.117 35.7322 102.337 36.1571C103.011 37.4525 103.793 38.6883 104.534 39.9474L104.487 40.0019C104.354 39.8969 104.228 39.7836 104.109 39.6625C103.547 39.0173 102.948 38.3955 102.454 37.7012C102.083 37.183 101.676 36.5872 101.593 35.9835C101.466 35.0871 101.578 34.1518 101.635 33.2372C101.663 32.8357 101.596 32.6647 101.153 32.6491C100.294 32.6389 99.4362 32.5644 98.588 32.4263C98.4235 32.387 98.2515 32.392 98.0895 32.4407C97.9275 32.4894 97.7813 32.5801 97.6657 32.7035C97.4846 32.8874 97.3255 33.0918 97.1916 33.3124C96.4851 34.3064 95.5973 35.1582 94.5749 35.8229C94.3114 35.9652 94.0966 36.1832 93.9581 36.4487C93.8196 36.7142 93.7637 37.0151 93.7976 37.3126C93.8546 38.3489 93.9323 39.3852 93.9919 40.4216C93.9922 40.5768 93.981 40.7318 93.9582 40.8853H93.8158C93.0722 39.6547 93.2302 38.2349 93.0826 36.8462C92.3804 37.0561 91.7017 37.2245 91.0436 37.4603C90.0508 37.7978 89.0157 37.9948 87.9683 38.0458C86.8419 38.1279 85.7096 38.021 84.6184 37.7297C83.8826 37.5328 83.1831 37.2115 82.4551 36.9913C82.1519 36.8955 81.8592 36.7478 81.5405 37.1494C81.3281 37.4084 81.2529 37.7193 81.0768 37.9681C80.6778 38.5329 80.3902 39.0718 80.7762 39.7557C80.912 39.9744 81.0216 40.2083 81.1027 40.4526C81.3617 41.3309 82.012 41.8646 82.7141 42.3517C83.9059 43.1808 85.3049 43.2896 86.6781 43.3595C87.6211 43.4088 88.5797 43.1963 89.528 43.072C89.5992 43.0472 89.6633 43.0055 89.7148 42.9505C89.7662 42.8954 89.8035 42.8286 89.8233 42.7559C89.914 42.1885 89.9606 41.6159 90.0254 41.0434C90.0824 40.5407 90.1446 40.0381 90.2068 39.5355H90.3518C90.4322 40.1987 90.5099 40.862 90.5902 41.5227C90.6938 42.3569 90.8208 43.1911 91.2949 43.9088C92.554 45.8208 94.523 46.2794 96.6164 46.4685C96.8478 46.4828 97.0794 46.4429 97.2926 46.3519C97.357 46.3154 97.4112 46.2633 97.4501 46.2004C97.4891 46.1375 97.5115 46.0657 97.5154 45.9918C97.3937 45.3026 97.189 44.6264 97.0957 43.9347C97.0607 43.3998 97.0607 42.8633 97.0957 42.3284H97.2512C97.3392 42.6212 97.4247 42.9139 97.5102 43.2041C97.79 44.0927 97.9455 45.0513 98.3859 45.8493C99.0233 47.0048 100.251 47.5359 101.435 47.9427C102.276 48.1903 103.151 48.2989 104.026 48.2639C104.967 48.2404 105.904 48.1443 106.829 47.9764C107.503 47.853 108.17 47.6894 108.824 47.4867C109.115 47.4305 109.388 47.3052 109.62 47.1214C110.192 46.5333 110.855 46.0488 111.262 45.2767C111.489 44.8594 111.618 44.396 111.639 43.9215C111.66 43.4471 111.573 42.974 111.384 42.5382C110.894 41.2869 110.332 40.0666 109.801 38.8334C109.948 38.8807 110.078 38.9709 110.174 39.0925C111.021 40.1146 111.684 41.2761 112.133 42.5253C112.423 43.2689 112.625 44.0306 113.61 44.2275C114.555 44.414 115.457 44.8104 116.459 44.7871C117.25 44.7602 118.037 44.6736 118.814 44.528C120.058 44.3052 121.043 43.6523 121.939 42.8984C122.59 42.3081 123.091 41.5708 123.4 40.748C123.609 40.1915 123.897 39.668 124.255 39.1935C124.916 38.3869 125.715 37.7043 126.615 37.1779C127.869 36.4421 129.206 35.8229 130.183 34.6389C130.581 34.1193 130.895 33.5394 131.11 32.9212C131.587 31.7242 131.349 30.4495 131.401 29.1982ZM102.161 17.1613C102.443 15.6068 103.156 14.1948 103.814 12.7569C104.293 11.7206 104.884 10.7205 104.772 9.48731C104.689 8.54425 104.169 7.91469 103.443 7.45093C102.393 6.7744 101.195 6.36196 99.9508 6.2488C99.3331 6.14808 98.7086 6.09438 98.0828 6.08817C96.7547 6.12366 95.454 6.47348 94.2873 7.10895C93.5359 7.54161 92.8908 8.11677 92.6602 8.92251C92.4141 9.78266 92.4012 10.7102 92.3157 11.6118C92.245 12.3419 92.2155 13.0754 92.2276 13.8088C92.239 13.9396 92.2768 14.0667 92.3387 14.1825C92.4006 14.2982 92.4853 14.4003 92.5877 14.4824C93.0334 14.7725 93.4982 15.0322 93.979 15.2596C94.409 15.4876 94.5127 15.4228 94.6604 14.9461C94.808 14.4694 94.8676 13.9331 95.4376 13.5316C95.4275 13.8482 95.399 14.1639 95.3521 14.4772C95.264 14.884 95.1112 15.2752 95.036 15.6845C95.0388 15.7615 95.057 15.8372 95.0895 15.907C95.122 15.9769 95.1681 16.0395 95.2252 16.0913C95.9454 16.8452 96.6993 17.5654 97.3988 18.3375C97.7222 18.7236 98.006 19.141 98.246 19.5837C98.3471 19.7547 98.2927 20.0397 98.417 20.1718C98.9533 20.7496 99.1399 21.4672 99.3186 22.1952C99.4559 22.7522 99.6813 22.9932 100.244 23.0061C100.725 23.0061 101.205 23.0398 101.684 23.0787C102.428 23.1383 102.65 22.988 102.897 22.2393C103.003 21.9154 103.13 21.5993 103.264 21.2858C103.549 20.6174 103.757 19.892 104.161 19.2987C104.742 18.4358 105.407 17.6322 106.145 16.8996C107.627 15.442 109.456 14.387 111.459 13.8347C112.532 13.529 113.61 13.5342 114.687 13.4072C114.936 13.397 115.184 13.4074 115.431 13.4383L116.827 13.516C116.908 13.2284 116.972 13.0212 117.027 12.8165C117.116 12.4987 117.139 12.1659 117.095 11.8388C117.05 11.5117 116.939 11.1972 116.768 10.9148C116.317 10.1743 115.677 9.56781 114.913 9.15828C113.457 8.34735 111.928 7.80328 110.249 7.86287C109.486 7.87673 108.739 8.08208 108.075 8.46007C107.412 8.83806 106.855 9.37658 106.454 10.0262C106.091 10.578 105.695 11.1066 105.334 11.6584C104.854 12.3038 104.425 12.9865 104.052 13.7C103.549 14.8118 103.12 15.956 102.77 17.125C102.517 18.0596 102.336 19.0124 102.231 19.9749C102.13 20.7107 102.132 21.4594 102.088 22.203L101.951 22.2211C101.852 21.6512 101.637 21.076 101.679 20.519C101.781 19.3921 101.942 18.2714 102.161 17.1613ZM131.406 21.0475C130.841 20.1666 130.522 20.0112 129.533 20.3583C129.408 20.3998 129.292 20.4775 129.167 20.506C128.838 20.5863 128.507 20.6407 128.219 20.2651C128.315 20.2357 128.413 20.2132 128.512 20.1977C129.489 20.1304 129.701 19.9075 129.701 18.9334C129.689 18.7505 129.689 18.567 129.701 18.3841C129.781 17.7038 129.626 17.0166 129.263 16.4359C128.789 15.6301 127.895 15.4798 127.079 15.27C126.877 15.2168 126.663 15.2195 126.462 15.2779C126.261 15.3363 126.079 15.4482 125.937 15.6016C125.701 15.7879 125.446 15.947 125.175 16.0757L125.074 15.9876C125.111 15.8573 125.158 15.73 125.214 15.6068C125.732 14.6974 125.45 13.7777 124.968 13.117C124.245 12.1248 123.123 11.889 122.004 11.7698C121.066 11.6714 121.058 11.7335 121.045 12.7077C121.045 12.8502 121.024 12.9901 121.011 13.1429C120.289 12.8372 120.071 11.56 120.605 10.9848C120.864 10.7024 121.123 10.4666 121.405 10.9615C121.449 11.0366 121.6 11.0625 121.708 11.0858C121.946 11.1503 122.189 11.1945 122.434 11.218C122.68 11.2335 123.079 11.2801 123.144 11.1636C123.243 10.9139 123.243 10.6359 123.144 10.3863C122.768 9.30336 121.879 8.83183 120.851 8.54425C120.201 8.36031 119.568 8.12454 118.921 7.93541C118.273 7.74629 117.687 7.60897 117.068 7.45093C116.449 7.29289 115.804 7.13744 115.174 6.97163C115.148 6.97163 115.141 6.89391 115.107 6.811C115.299 6.811 115.459 6.78769 115.625 6.78769C116.125 6.78769 116.628 6.78769 117.128 6.78769C117.387 6.78769 117.532 6.72292 117.408 6.39388C116.61 4.25647 114.327 3.49477 112.35 3.81603C111.832 3.90153 111.659 4.29015 111.954 4.74095C112.141 5.00849 112.392 5.22493 112.685 5.37051C113.1 5.55446 113.527 5.71195 113.962 5.84204C113.874 5.90681 113.845 5.94049 113.825 5.9379C112.387 5.72286 110.946 5.49228 109.488 5.75654C108.516 5.93531 107.547 6.10889 106.687 6.65815C106.495 6.7825 106.078 6.86541 105.977 6.76178C105.742 6.46101 105.547 6.13094 105.397 5.77986L105.524 5.67105C105.879 5.98454 106.215 6.20735 106.702 5.91717C107.147 5.64036 107.631 5.43329 108.138 5.30315C108.876 5.1479 109.625 5.04916 110.379 5.0078C110.977 4.96635 111.322 4.57773 110.897 4.0777C110.561 3.73027 110.198 3.41056 109.811 3.12169C108.918 2.34445 107.759 2.16309 106.702 1.76929C106.617 1.75363 106.529 1.75363 106.443 1.76929C105.759 1.76929 105.07 1.71488 104.391 1.78224C103.389 1.86314 102.433 2.24209 101.648 2.87038C101.514 3.00983 101.439 3.19531 101.438 3.38855C101.438 3.46109 101.671 3.55177 101.806 3.61913C101.941 3.68649 102.091 3.73312 102.337 3.82898H99.1709C99.5453 3.66314 99.9295 3.52038 100.321 3.4015C100.635 3.28491 100.655 3.02842 100.365 2.90147C99.8082 2.63584 99.2234 2.43253 98.6217 2.29522C97.6216 2.1035 96.676 2.4144 95.7511 2.77971C95.3443 2.94034 95.2329 3.26678 95.3366 3.69685C95.4039 3.95593 95.4454 4.45078 95.3366 4.50778C94.846 4.72295 94.3381 4.89629 93.8183 5.02594L93.7562 4.84199C93.8805 4.78758 94.0386 4.76427 94.1163 4.67359C94.308 4.45078 94.6215 4.17615 94.593 3.95852C94.5924 3.86011 94.5713 3.76289 94.5309 3.67311C94.4906 3.58332 94.432 3.50294 94.3589 3.4371C94.2857 3.37126 94.1996 3.32141 94.1061 3.29075C94.0126 3.26008 93.9137 3.24927 93.8158 3.25901C92.9702 3.25774 92.1525 3.56128 91.5125 4.11397C90.9218 4.59068 90.87 4.95599 91.2664 5.6011C91.6861 6.28766 91.5255 7.02863 91.4426 7.75924C91.4426 7.78774 91.3441 7.80847 91.2379 7.85769C91.2379 7.59861 91.2379 7.40689 91.2379 7.20999C91.199 6.09076 90.3596 5.04925 89.2611 4.99226C88.2248 4.93785 87.147 4.76167 86.1521 5.32906C85.9287 5.43887 85.7402 5.6088 85.6079 5.81978C85.4757 6.03075 85.4049 6.27442 85.4034 6.52342C85.4377 6.75496 85.5388 6.97145 85.6944 7.14634C85.8499 7.32122 86.0531 7.44689 86.2791 7.50793C87.0097 7.73333 87.7481 7.94319 88.4528 8.23854C88.8984 8.40977 89.2977 8.68307 89.6186 9.03651C89.7948 9.25154 89.6523 9.71012 89.7093 10.0495C89.7253 10.2833 89.8224 10.5041 89.9839 10.6739C90.4332 10.9418 90.8988 11.1815 91.3778 11.3916C91.4413 11.2014 91.4933 11.0076 91.5333 10.8112C91.5851 10.4537 91.598 10.0884 91.6472 9.73084C91.7771 8.79283 92.1747 7.91217 92.7924 7.19444C93.4686 6.38611 94.4479 6.01303 95.4169 5.74618C96.5904 5.41524 97.8118 5.28732 99.0285 5.36792C100.505 5.4412 101.952 5.80202 103.29 6.43015C104.358 6.94832 105.125 7.72556 105.438 8.88883C105.547 9.30336 105.863 9.40699 106.125 9.17641C106.528 8.76076 106.961 8.37541 107.42 8.0235C107.888 7.67022 108.414 7.40187 108.975 7.23071C110.412 6.87059 111.85 7.16854 113.221 7.57011C114.529 7.95355 115.786 8.53648 116.708 9.64276C117.563 10.6584 118.182 11.7387 117.682 13.13C117.527 13.5678 117.752 13.7932 118.133 13.9072C118.592 14.029 119.055 14.1404 119.524 14.2233C120.492 14.3625 121.403 14.7639 122.159 15.384C122.898 16.0136 123.773 16.5317 124.045 17.5654C124.052 17.5976 124.064 17.6283 124.082 17.6561C124.462 18.1484 124.83 18.651 125.234 19.1225C125.375 19.2353 125.543 19.3078 125.722 19.3324C125.874 19.3558 126.028 19.367 126.183 19.3661C126.139 19.4956 126.121 19.5733 126.089 19.6459C125.965 19.9542 125.83 20.2288 126.045 20.5915C126.244 20.9321 126.378 21.3062 126.442 21.6952C126.587 22.6072 127.03 22.8947 127.877 22.5553C127.908 22.5424 127.934 22.5191 127.965 22.5087C128.439 22.3429 128.9 22.2729 129.261 22.7263C129.621 23.1797 130.022 23.6279 130.354 24.1098C130.686 24.5917 130.95 25.1073 131.245 25.6073L131.401 25.6203C131.551 25.1721 131.792 24.7316 131.836 24.2731C131.952 23.1771 132.056 22.0709 131.406 21.0553V21.0475ZM72.4571 19.7884C72.5115 19.7158 72.5685 19.6485 72.6178 19.5759L73.6541 17.9955C73.6715 18.1436 73.6715 18.2931 73.6541 18.4411C73.5125 18.8764 73.3596 19.3082 73.1955 19.7365C72.8276 20.7107 72.5012 21.6537 72.9364 22.7341C73.1282 23.1953 73.3302 23.2523 73.6878 23.1512C74.2059 22.9932 74.7241 22.7937 75.2423 22.5942C75.3587 22.5444 75.4515 22.4516 75.5013 22.3351C75.9299 21.0529 76.5267 19.8332 77.276 18.708C78.0958 17.5028 79.1293 16.4579 80.3254 15.6249C80.6467 15.4047 81.1027 15.1456 81.1726 14.8296C81.4236 13.7982 81.8187 12.8075 82.3462 11.8864C82.6053 11.4356 82.5872 11.2698 82.1571 10.99C82.0527 10.9126 81.9556 10.8259 81.867 10.7309L81.9809 10.6169C82.1451 10.5934 82.3117 10.5934 82.4758 10.6169C83.1339 10.8138 83.7323 10.6609 84.3412 10.407C84.7491 10.2098 85.1868 10.0811 85.6366 10.0262C86.5149 9.96661 87.4035 10.0003 88.287 10.0107C88.6056 10.0107 88.7248 9.89407 88.7378 9.57021C88.7559 9.14791 88.5201 8.98469 88.173 8.87588C87.3128 8.6168 86.4449 8.35772 85.5977 8.052C84.4862 7.60897 83.3247 7.30358 82.139 7.14263C80.4705 6.96904 79.3254 7.79292 78.4186 8.99246C77.9989 9.5469 77.8719 10.3164 77.574 10.9693C77.2964 11.6389 76.9673 12.286 76.5895 12.9046C76.1594 13.5497 75.478 13.9124 74.7526 14.2C74.3679 14.3305 74.0092 14.5278 73.6929 14.7829C73.2292 15.2 72.7473 15.5913 72.4675 16.2079C71.9675 17.3193 71.7343 18.4126 72.2602 19.5759C72.3165 19.6548 72.3827 19.7262 72.4571 19.7884ZM76.4107 15.1897C77.3615 14.871 77.6362 14.1197 77.7294 13.2129C77.8067 12.8444 77.9267 12.4862 78.087 12.1455L78.346 12.2102C78.2657 13.0056 78.2061 13.8036 78.087 14.5964C78.0542 14.7949 77.9562 14.9769 77.8084 15.1135C77.6605 15.25 77.4714 15.3334 77.2709 15.3503C76.7294 15.4514 76.1853 15.5291 75.6412 15.6094C75.6283 15.5524 75.6153 15.4954 75.5998 15.4384L76.4107 15.1897ZM81.1312 36.3514C80.9083 36.1882 80.6726 36.0431 80.4446 35.8876C79.3642 35.1622 78.3435 34.3643 77.6232 33.2657C77.0817 32.4419 76.5869 31.5817 76.1309 30.7086C75.8381 30.1516 75.6438 29.5453 75.3873 28.9158C74.9687 28.8432 74.5594 28.7241 74.1671 28.5608C73.3665 28.1359 72.7007 27.4934 72.4779 26.61C72.3457 26.0918 72.1462 25.4933 72.5115 24.9104C72.9701 24.1772 72.6333 23.0243 71.8768 22.6719C70.9882 24.0995 70.0296 25.4726 69.6254 27.1799C69.3725 28.223 69.4634 29.3198 69.8845 30.307C70.1928 31.0454 70.8301 31.6776 71.4208 32.2527C72.0115 32.8279 72.2162 32.7087 72.8043 32.1491C73.0349 31.9341 73.294 31.7475 73.5401 31.5455L73.667 31.6413C73.6584 31.7606 73.634 31.8782 73.5945 31.9911C73.4468 32.2657 73.2862 32.5325 73.1152 32.789C72.7101 33.3807 72.5266 34.0963 72.597 34.8099C72.781 36.4136 73.4753 37.7504 74.9288 38.5899C76.3822 39.4293 77.8408 39.3671 79.2528 38.5614C79.8869 38.1592 80.4866 37.7051 81.0457 37.2038C81.1158 37.16 81.175 37.1007 81.2187 37.0304C81.2623 36.9602 81.2893 36.8809 81.2976 36.7986C81.3058 36.7163 81.2951 36.6332 81.2663 36.5557C81.2374 36.4782 81.1912 36.4083 81.1312 36.3514ZM89.6238 11.3812C89.1316 11.1454 88.5512 11.1066 88.0357 10.9071C86.9164 10.477 85.8335 10.648 84.7816 11.0781C83.5613 11.5703 82.8126 12.5315 82.3644 13.7362C82.3216 13.9327 82.305 14.1339 82.3152 14.3347C82.5034 14.3391 82.6913 14.3146 82.8722 14.2622C84.2609 13.6145 85.748 13.4849 87.7248 13.3683C88.3466 13.4746 89.4243 13.6766 90.5073 13.8373C90.7949 13.8787 91.2094 13.8943 91.3726 13.7285C91.6317 13.4694 91.5643 13.0859 91.3726 12.7232C90.9762 12.0082 90.2871 11.6947 89.6238 11.3812ZM101.935 28.4676C101.575 28.5116 101.205 28.4676 100.839 28.4676C99.6658 28.4987 99.6114 28.2085 99.2668 29.5635C99.2348 29.6397 99.1984 29.7141 99.158 29.7863C98.9637 30.3045 98.759 30.8226 98.5932 31.3408C98.5927 31.4072 98.6094 31.4726 98.6416 31.5307C98.6739 31.5888 98.7205 31.6376 98.7771 31.6724C99.3756 31.776 99.9819 31.8434 100.663 31.9315C101.035 31.822 101.416 31.7457 101.801 31.7035C102.441 31.6802 102.821 31.2579 103.236 30.8848C103.321 30.8071 103.319 30.5765 103.285 30.4366C103.171 29.9961 103.011 29.5713 102.891 29.1412C102.757 28.6541 102.49 28.3924 101.935 28.4676ZM116.887 23.1098C116.871 21.8144 116.991 20.576 116.501 19.3946C116.397 19.1355 116.317 18.993 116.06 18.9748C115.449 18.9334 114.838 18.8686 114.226 18.8816C112.99 18.9075 111.894 19.4386 110.858 20.0397C110.713 20.1243 110.601 20.2559 110.541 20.4127C110.48 20.5696 110.475 20.7423 110.526 20.9024C110.762 21.975 110.936 23.0657 111.236 24.1176C111.452 24.8105 111.501 25.5444 111.379 26.2597C111.258 26.975 110.969 27.6516 110.537 28.2344C110.439 28.401 110.352 28.5741 110.278 28.7526C110.537 28.8199 110.713 28.8743 110.9 28.9158C111.493 29.0531 112.091 29.1593 112.674 29.3225C113.552 29.5784 114.341 30.0746 114.952 30.7553C115.114 30.9118 115.327 31.0039 115.553 31.0143C117.884 31.0558 119.26 29.6775 120.061 27.9054C120.742 26.4053 120.825 24.7575 121.076 23.1538C121.104 22.9921 121.076 22.8257 120.996 22.6823C120.239 21.532 119.441 20.4231 118.146 19.7806C117.866 19.6407 117.576 19.5215 117.291 19.3946L117.138 19.4904C117.172 19.7832 117.2 20.0759 117.244 20.3661C117.374 20.9733 117.46 21.5888 117.504 22.2082C117.511 22.4038 117.456 22.5968 117.344 22.758C117.233 22.9191 117.073 23.0399 116.887 23.102V23.1098ZM110.669 25.4752C110.648 24.8689 110.555 24.2653 110.475 23.6616C110.353 22.7393 110.216 21.8196 110.083 20.8972L109.912 20.8558C109.669 21.133 109.394 21.3921 109.184 21.6926C108.5 22.6486 107.964 23.672 107.938 24.8871C107.902 25.4247 107.907 25.9642 107.951 26.5011C108.039 27.1444 108.178 27.7795 108.368 28.4002C108.419 28.4841 108.49 28.5536 108.576 28.6017C108.661 28.6498 108.757 28.675 108.855 28.6748C109.171 28.5481 109.458 28.3616 109.703 28.1256C110.444 27.4002 110.692 26.4701 110.661 25.4674L110.669 25.4752ZM111.848 31.9988C112.656 32.3903 113.54 32.6008 114.439 32.6155C114.827 32.6155 114.936 32.4548 114.832 32.0973C114.645 31.4517 114.213 30.905 113.628 30.5739C112.796 30.0557 111.863 29.8951 110.915 29.7967C110.41 29.7422 109.902 29.706 109.397 29.6619L109.311 29.8096C109.373 29.9507 109.444 30.0875 109.524 30.219C110.118 31.0117 110.919 31.6249 111.84 31.9911L111.848 31.9988ZM116.405 31.6776C115.949 31.7294 115.765 31.9367 115.804 32.3616C118.457 32.5196 122.607 29.009 121.346 24.2161C121.256 24.531 121.196 24.8537 121.167 25.1798C121.166 26.7756 120.666 28.3312 119.737 29.6283C119.367 30.1955 118.875 30.6731 118.298 31.0263C117.72 31.3795 117.071 31.5993 116.397 31.6698L116.405 31.6776ZM91.4141 20.234C91.155 20.1873 90.8467 20.3402 90.5358 20.4102C90.523 20.3243 90.523 20.237 90.5358 20.1511C90.6653 19.6977 90.4451 19.5189 90.0435 19.3738C88.9115 18.9555 87.7029 18.785 86.4993 18.8738C86.2568 18.8598 86.018 18.9375 85.8303 19.0917C85.6426 19.2458 85.5198 19.4649 85.4863 19.7055C85.2841 20.3755 85.1316 21.0596 85.0303 21.7522C84.9694 22.4086 85.0185 23.0706 85.1754 23.7108C85.4316 24.6596 85.9256 25.5272 86.6107 26.2317C87.3595 27.0245 88.1652 27.7706 88.9243 28.5479C89.067 28.7177 89.1945 28.8998 89.3052 29.092C89.132 29.1432 88.9457 29.1236 88.787 29.0375C88.3906 28.7551 88.0098 28.4417 87.6289 28.1463C86.2837 27.168 85.2246 25.8477 84.5614 24.3223C84.1365 23.3067 83.9163 22.2496 84.2894 21.1434C84.4526 20.6563 84.5484 20.1459 84.6598 19.6459L84.4785 19.4697C83.9759 19.7832 83.3878 20.0112 82.9914 20.4257C82.2711 21.1848 81.4965 21.9336 81.1389 22.9621C80.8954 23.6642 80.5793 24.3715 80.5094 25.0969C80.328 26.9442 80.9446 28.5945 82.0405 30.0661C82.1127 30.1717 82.205 30.2619 82.3122 30.3317C82.4193 30.4015 82.5392 30.4495 82.6649 30.4729C83.2919 30.4729 83.8696 29.4365 83.5613 28.8899C83.253 28.3432 82.8644 27.8406 82.525 27.3147C82.4395 27.1851 82.367 27.0556 82.2245 26.7965C82.981 27.0815 83.551 27.3639 83.8178 28.0271C83.9137 28.2681 84.0329 28.5012 84.1313 28.7422C84.3904 29.3951 84.678 29.8796 85.5563 30.0195C86.7688 30.2112 87.6885 31.0247 88.2947 32.1336C88.3358 32.2022 88.3914 32.2609 88.4577 32.3057C88.5239 32.3504 88.5992 32.3801 88.6782 32.3926C89.6627 32.4393 90.4658 31.9418 91.269 31.4625C91.9882 30.9976 92.6095 30.3964 93.0981 29.693C93.5385 29.0997 94.0049 28.4831 93.6448 27.6722C93.1914 26.6359 93.3416 25.5296 93.1862 24.4596C93.0877 23.7834 93.238 23.0735 93.251 22.3869C93.2645 22.1894 93.2175 21.9923 93.1162 21.8221C92.8334 21.4204 92.5171 21.0434 92.1706 20.6951C91.9675 20.4724 91.7051 20.3124 91.4141 20.234ZM83.3178 30.5972C83.0302 30.6542 82.8463 30.8123 83.1364 31.1154C83.2162 31.2025 83.3028 31.2831 83.3955 31.3563C84.4041 32.0563 85.5735 32.4895 86.7947 32.6155C87.0006 32.6039 87.2034 32.5602 87.3957 32.4859C87.2999 32.2268 87.2817 31.8745 87.0952 31.7087C86.2694 30.9605 85.1855 30.562 84.0717 30.5972C83.8213 30.5699 83.5689 30.5665 83.3178 30.5868V30.5972ZM94.1189 26.5737C94.5049 25.6488 94.3391 24.7601 93.9272 23.8559C93.6292 24.7705 94.036 25.6565 94.1189 26.5633V26.5737Z" fill="url(#paint0_linear_0_389)"/>
<path d="M154.759 8.00049C150.945 8.02259 147.268 9.43011 144.413 11.961C141.559 14.492 139.722 17.9738 139.243 21.7585C138.765 25.5432 139.678 29.3728 141.813 32.5344C143.947 35.6961 147.158 37.9743 150.847 38.9451V44.2718C150.847 44.3427 150.861 44.4128 150.89 44.4778C150.918 44.5429 150.959 44.6015 151.01 44.6501C151.118 44.7529 151.263 44.8087 151.412 44.8055H158.107C158.18 44.8072 158.254 44.7944 158.323 44.7677C158.392 44.7411 158.455 44.7011 158.508 44.6501C158.62 44.5438 158.674 39.7275 158.674 39.5747V38.9451C162.363 37.9742 165.574 35.6958 167.709 32.5339C169.844 29.372 170.756 25.5421 170.278 21.7572C169.799 17.9724 167.961 14.4905 165.106 11.9598C162.251 9.42906 158.574 8.02198 154.759 8.00049ZM154.759 31.7478C153.169 31.7566 151.612 31.2929 150.285 30.4157C148.959 29.5385 147.922 28.2873 147.308 26.8205C146.693 25.3537 146.528 23.7375 146.833 22.1766C147.138 20.6158 147.899 19.1806 149.02 18.053C150.142 16.9253 151.573 16.156 153.132 15.8425C154.691 15.529 156.308 15.6855 157.778 16.2921C159.249 16.8986 160.506 17.928 161.39 19.2497C162.275 20.5714 162.747 22.126 162.747 23.7163C162.749 25.8384 161.91 27.8749 160.412 29.3783C158.915 30.8818 156.881 31.7294 154.759 31.7349V31.7478Z" fill="white"/>
<path d="M84.0044 15.4595C82.069 16.058 80.4394 16.8845 79.1051 18.4156C78.6763 18.9248 78.3181 19.4895 78.0403 20.0945C77.5481 21.2811 77.2061 22.5298 76.7734 23.7397C76.7288 23.8258 76.6666 23.9015 76.5906 23.9618C76.5147 24.0221 76.4269 24.0656 76.333 24.0895C76.0691 24.122 75.8029 24.1298 75.5376 24.1128C74.8148 24.1439 74.1619 24.631 74.0297 25.2113C73.8406 26.0663 74.0686 26.815 74.7319 27.1156C75.0868 27.2762 75.535 27.2451 75.9443 27.258C76.6905 27.2788 76.7216 27.2943 76.8226 28.0197C76.8283 28.0859 76.8378 28.1516 76.8511 28.2166C77.4303 30.6088 78.7995 32.7357 80.7373 34.2532C82.0553 35.3254 83.6277 36.0393 85.3023 36.3259C87.16 36.6212 89.0409 36.5849 90.87 35.9735C93.0138 35.2709 94.8879 33.9225 96.2356 32.1132C97.2499 30.7314 97.9165 29.1256 98.1787 27.4316C98.2512 27.0223 98.4118 26.9575 98.7564 26.9601C100.293 26.9601 101.829 26.9808 103.363 26.9601C103.827 26.9601 104 27.1181 104.073 27.5612C104.471 30.1667 105.846 32.5231 107.918 34.1522C109.877 35.783 112.383 36.609 114.928 36.4632C116.325 36.6679 117.796 36.1341 119.265 35.6859C120.247 35.3854 121.019 34.6807 121.796 33.9967C123.472 32.5661 124.666 30.6549 125.219 28.5224C125.512 27.3979 125.478 27.4083 126.628 27.3617C126.965 27.3461 127.387 27.3202 127.615 27.1233C127.855 26.9047 128.033 26.6268 128.132 26.3176C128.231 26.0084 128.246 25.6787 128.178 25.3616C128.033 24.5196 127.4 24.118 126.302 24.1154C125.468 24.1154 125.439 24.1154 125.284 23.3382C124.789 20.8458 123.47 18.882 121.506 17.3093C118.861 15.1927 115.851 14.6045 112.571 15.1745C111.053 15.4662 109.619 16.0919 108.373 17.0062C106.797 18.1045 105.57 19.6336 104.84 21.4106C104.461 22.3044 104.272 23.276 103.969 24.2009C103.934 24.2805 103.88 24.3506 103.813 24.4056C103.745 24.4605 103.666 24.4987 103.58 24.517C101.912 24.5377 100.244 24.5377 98.5751 24.517C98.4976 24.5007 98.4252 24.4657 98.3643 24.4152C98.3033 24.3646 98.2556 24.3 98.2253 24.2268C98.0621 23.6724 97.9662 23.0998 97.8056 22.5428C97.1164 20.1281 95.6474 18.2602 93.6111 16.843C92.2118 15.916 90.6236 15.3124 88.9618 15.0763C87.3 14.8401 85.6065 14.9772 84.0044 15.4776V15.4595ZM114.721 17.2938C115.832 17.2873 116.934 17.5007 117.962 17.9217C118.991 18.3427 119.925 18.9629 120.713 19.7468C121.501 20.5306 122.126 21.4625 122.552 22.4889C122.978 23.5152 123.197 24.6156 123.196 25.7269C123.25 30.4344 119.278 34.191 114.781 34.1807C110.063 34.1807 106.275 30.5225 106.27 25.7683C106.265 20.8769 110.104 17.3456 114.721 17.2938ZM95.9065 25.7709C95.878 30.5587 92.0954 34.1315 87.4475 34.1781C82.7996 34.2247 78.8979 30.3152 78.9756 25.7036C78.9316 21.1127 82.8333 17.2083 87.5097 17.2886C92.1861 17.3689 95.9376 21.0375 95.9065 25.7709Z" fill="url(#paint1_linear_0_389)"/>
</g>
<defs>
<linearGradient id="paint0_linear_0_389" x1="119.743" y1="45.1124" x2="80.9792" y2="6.32976" gradientUnits="userSpaceOnUse">
<stop stop-color="#FCD7E7"/>
<stop offset="0.47" stop-color="white"/>
<stop offset="1" stop-color="#B2EDE9"/>
</linearGradient>
<linearGradient id="paint1_linear_0_389" x1="101.092" y1="14.9416" x2="101.092" y2="36.4996" gradientUnits="userSpaceOnUse">
<stop stop-color="#FF614F"/>
<stop offset="1" stop-color="#FF37A0"/>
</linearGradient>
<clipPath id="clip0_0_389">
<rect width="170.403" height="50" fill="white"/>
</clipPath>
</defs>
</svg>
