<svg width="60" height="60" viewBox="0 0 60 60" fill="none" xmlns="http://www.w3.org/2000/svg">
<path opacity="0.4" d="M14.35 40C14.625 38.775 14.125 37.025 13.25 36.15L7.17501 30.075C5.27501 28.175 4.52501 26.15 5.07501 24.4C5.65001 22.65 7.42501 21.45 10.075 21L17.875 19.7C19 19.5 20.375 18.5 20.9 17.475L25.2 8.85C26.45 6.375 28.15 5 30 5C31.85 5 33.55 6.375 34.8 8.85L39.1 17.475C39.425 18.125 40.1 18.75 40.825 19.175L13.9 46.1C13.55 46.45 12.95 46.125 13.05 45.625L14.35 40Z" fill="url(#paint0_linear_102_24)"/>
<path d="M46.75 36.15C45.85 37.05 45.35 38.775 45.65 40L47.375 47.525C48.1 50.65 47.65 53 46.1 54.125C45.475 54.575 44.725 54.8 43.85 54.8C42.575 54.8 41.075 54.325 39.425 53.35L32.1 49C30.95 48.325 29.05 48.325 27.9 49L20.575 53.35C17.8 54.975 15.425 55.25 13.9 54.125C13.325 53.7 12.9 53.125 12.625 52.375L43.025 21.975C44.175 20.825 45.8 20.3 47.375 20.575L49.9 21C52.55 21.45 54.325 22.65 54.9 24.4C55.45 26.15 54.7 28.175 52.8 30.075L46.75 36.15Z" fill="url(#paint1_linear_102_24)"/>
<defs>
<linearGradient id="paint0_linear_102_24" x1="22.8617" y1="4.95731" x2="22.8617" y2="46.23" gradientUnits="userSpaceOnUse">
<stop stop-color="#FF614F"/>
<stop offset="1" stop-color="#FF37A0"/>
</linearGradient>
<linearGradient id="paint1_linear_102_24" x1="33.8501" y1="20.4677" x2="33.8501" y2="54.7926" gradientUnits="userSpaceOnUse">
<stop stop-color="#FF614F"/>
<stop offset="1" stop-color="#FF37A0"/>
</linearGradient>
</defs>
</svg>
